<svg width="70" height="70" viewBox="0 0 70 70" fill="none" xmlns="http://www.w3.org/2000/svg">
<g clip-path="url(#clip0)">
<path d="M69.8394 20.6308C69.7398 20.4617 69.5987 20.3206 69.4296 20.221L35.5885 0.282465C35.2253 0.0682798 34.7747 0.0682798 34.4115 0.282465L0.570436 20.221C0.0192594 20.5458 -0.164225 21.2561 0.160602 21.8073C0.260236 21.9765 0.401289 22.1175 0.570436 22.2171L5.5151 25.1309C5.10207 25.9314 4.88369 26.8182 4.8779 27.7191V45.7135C2.41107 46.3378 0.917275 48.8438 1.54158 51.3106C1.9268 52.8328 3.06058 54.0539 4.55003 54.5509L0.294703 68.3793C0.106585 68.9908 0.449803 69.639 1.06137 69.8271C1.17172 69.8612 1.2867 69.8784 1.40227 69.8784C1.52667 69.8783 1.6502 69.8583 1.76837 69.8193L8.71962 67.5023C9.26646 67.3196 9.59592 66.7627 9.49237 66.1954L7.38382 54.5938C9.82169 53.864 11.2063 51.2963 10.4766 48.8585C10.0118 47.3061 8.76568 46.1118 7.19498 45.7135V27.7191C7.19773 27.2309 7.30475 26.7491 7.50895 26.3056L9.51207 27.4862V40.9149C9.51207 45.0474 12.756 48.9146 18.4213 51.5248C23.654 53.7777 29.3036 54.8998 35 54.8174C40.6961 54.8999 46.3453 53.7779 51.5776 51.5248C57.244 48.9146 60.4879 45.0474 60.4879 40.9149V27.4862L69.4296 22.2171C69.9809 21.8922 70.1644 21.182 69.8394 20.6308ZM3.17136 66.9091L5.7468 58.5409L7.03394 65.6219L3.17136 66.9091ZM8.35352 50.1832C8.35352 51.463 7.31619 52.5003 6.03644 52.5003C4.75668 52.5003 3.71935 51.463 3.71935 50.1832C3.71935 48.9034 4.75668 47.8661 6.03644 47.8661C7.31619 47.8661 8.35352 48.9034 8.35352 50.1832ZM58.1708 40.9149C58.1708 44.1043 55.4135 47.2046 50.6056 49.4209C45.6784 51.5342 40.3606 52.5836 35 52.5003C29.639 52.5834 24.3208 51.5341 19.3933 49.4209C14.5865 47.2046 11.8292 44.1043 11.8292 40.9149V28.8533L34.4115 42.1568C34.7747 42.371 35.2253 42.371 35.5885 42.1568L58.1708 28.8533V40.9149ZM35 39.8131L9.1703 24.5956C9.50917 24.4288 9.87324 24.3187 10.2477 24.2701L35.1413 21.2115C35.7767 21.1335 36.2285 20.5551 36.1504 19.9198C36.0724 19.2844 35.494 18.8326 34.8587 18.9107L9.96506 21.9692C8.85372 22.1075 7.80698 22.5669 6.95285 23.2911L3.4413 21.2196L35 2.6262L66.5587 21.2196L35 39.8131Z" fill="#2DA15F"/>
</g>
<defs>
<clipPath id="clip0">
<rect width="70" height="70" fill="white"/>
</clipPath>
</defs>
</svg>
