<svg width="64" height="64" viewBox="0 0 64 64" fill="none" xmlns="http://www.w3.org/2000/svg">
<path d="M9.14298 23.7037C4.56106 23.7037 0.84668 27.4181 0.84668 32C0.84668 36.582 4.56106 40.2963 9.14298 40.2963C13.7249 40.2963 17.4393 36.582 17.4393 32C17.4393 27.4181 13.7249 23.7037 9.14298 23.7037ZM9.14298 36.9101C6.43129 36.9101 4.23293 34.7117 4.23293 32C4.23293 29.2883 6.43129 27.09 9.14298 27.09C11.8547 27.09 14.053 29.2883 14.053 32C14.053 34.7117 11.8548 36.9101 9.14298 36.9101Z" fill="#2DA15F"/>
<path d="M61.4607 30.307H23.1961C22.2609 30.307 21.5029 31.065 21.5029 32.0001C21.5029 32.9353 22.2609 33.6933 23.1961 33.6933H61.4607C62.3958 33.6933 63.1538 32.9353 63.1538 32.0001C63.1538 31.065 62.3958 30.307 61.4607 30.307Z" fill="#2DA15F"/>
<path d="M9.14298 0C4.56106 0 0.84668 3.71438 0.84668 8.2963C0.84668 12.8782 4.56106 16.5926 9.14298 16.5926C13.7249 16.5926 17.4393 12.8782 17.4393 8.2963C17.4393 3.71438 13.7249 0 9.14298 0ZM9.14298 13.2064C6.43129 13.2064 4.23293 11.008 4.23293 8.2963C4.23293 5.58461 6.43129 3.38625 9.14298 3.38625C11.8547 3.38625 14.053 5.58461 14.053 8.2963C14.053 11.008 11.8548 13.2064 9.14298 13.2064Z" fill="#2DA15F"/>
<path d="M23.1961 9.98941H61.4607C62.3958 9.98941 63.1538 9.2314 63.1538 8.29628C63.1538 7.36116 62.3958 6.60315 61.4607 6.60315H23.1961C22.2609 6.60315 21.5029 7.36116 21.5029 8.29628C21.5029 9.2314 22.2609 9.98941 23.1961 9.98941Z" fill="#2DA15F"/>
<path d="M9.14298 47.4073C4.56106 47.4073 0.84668 51.1217 0.84668 55.7036C0.84668 60.2856 4.56106 63.9999 9.14298 63.9999C13.7249 63.9999 17.4393 60.2856 17.4393 55.7036C17.4393 51.1217 13.7249 47.4073 9.14298 47.4073ZM14.053 55.7036C14.053 58.4153 11.8547 60.6137 9.14298 60.6137C6.43129 60.6137 4.23293 58.4153 4.23293 55.7036C4.23293 52.992 6.43129 50.7936 9.14298 50.7936C11.8547 50.7936 14.053 52.992 14.053 55.7036Z" fill="#2DA15F"/>
<path d="M61.4607 54.0105H23.1961C22.2609 54.0105 21.5029 54.7685 21.5029 55.7036C21.5029 56.6387 22.2609 57.3968 23.1961 57.3968H61.4607C62.3958 57.3968 63.1538 56.6387 63.1538 55.7036C63.1538 54.7685 62.3958 54.0105 61.4607 54.0105Z" fill="#2DA15F"/>
</svg>
