<svg width="74" height="74" viewBox="0 0 74 74" fill="none" xmlns="http://www.w3.org/2000/svg">
<path d="M72.7241 34.6268H56.4059V31.4755C56.4051 31.0152 56.1564 30.591 55.7552 30.3655L38.2759 20.5413V15.5399H41.7334V17.441C41.7334 18.1456 42.3047 18.7168 43.0093 18.7168H53.4331C54.1377 18.7165 54.7086 18.1451 54.7085 17.4405C54.7085 17.2928 54.6827 17.1462 54.6324 17.0072L53.5862 14.0344L54.6452 11.1255C54.8847 10.4628 54.5418 9.73141 53.8792 9.49187C53.7403 9.44163 53.5937 9.41596 53.4459 9.4158H48.6997V7.5658C48.6997 6.8612 48.1284 6.28993 47.4238 6.28993H38.2759V4.73338C38.2759 4.02879 37.7046 3.45752 37 3.45752C36.2954 3.45752 35.7241 4.02879 35.7241 4.73338V20.5413L18.2448 30.3527C17.8436 30.5782 17.5949 31.0024 17.5941 31.4627V34.6141H1.27586C0.571267 34.6141 0 35.1853 0 35.8899V69.2665C0 69.9711 0.571267 70.5424 1.27586 70.5424H72.7241C73.4287 70.5424 74 69.9711 74 69.2665V35.9027C74 35.1981 73.4287 34.6268 72.7241 34.6268ZM48.6997 14.2641L48.6486 14.213V12.0186H51.5576L51.0345 13.6517C50.93 13.9359 50.93 14.2478 51.0345 14.532L51.6341 16.1651H44.2852V15.5399H47.4238C48.1284 15.5399 48.6997 14.9687 48.6997 14.2641ZM38.2759 8.84166H46.1479V10.7427V12.9882H38.2759V8.84166ZM17.5941 67.9906H2.55172V37.1786H17.5941V67.9906ZM35.7241 67.9906H29.0259V53.4203H35.7241V67.9906ZM44.9741 67.9906H38.2759V53.4203H44.9741V67.9906ZM53.9052 67.9906H47.5259V52.1444C47.5259 51.4398 46.9546 50.8686 46.25 50.8686H27.75C27.0454 50.8686 26.4741 51.4398 26.4741 52.1444V67.9906H20.0948V32.2665L37 22.7486L53.8541 32.2155L53.9052 35.8899V67.9906ZM71.4483 67.9906H56.4059V37.1786H71.4483V67.9906Z" fill="#2DA15F"/>
<path d="M37.0002 29.6527C34.0456 29.6597 31.6543 32.0568 31.6543 35.0113C31.6613 37.9638 34.0604 40.3514 37.0129 40.3444C39.9654 40.3374 42.353 37.9383 42.346 34.9858C42.339 32.0384 39.9476 29.6527 37.0002 29.6527ZM37.0002 37.7927C35.457 37.7857 34.2118 36.529 34.2188 34.9858C34.2258 33.4527 35.4669 32.2115 37.0002 32.2044C38.5454 32.2115 39.7943 33.4661 39.7943 35.0113H39.8071C39.8 36.5545 38.5433 37.7997 37.0002 37.7927Z" fill="#2DA15F"/>
<path d="M8.17868 43.9855H5.62695V49.0889H8.17868V43.9855Z" fill="#2DA15F"/>
<path d="M14.4682 43.9855H11.9165V49.0889H14.4682V43.9855Z" fill="#2DA15F"/>
<path d="M8.17868 55.0266H5.62695V60.1301H8.17868V55.0266Z" fill="#2DA15F"/>
<path d="M14.4682 55.0266H11.9165V60.1301H14.4682V55.0266Z" fill="#2DA15F"/>
<path d="M62.0835 43.9855H59.5317V49.0889H62.0835V43.9855Z" fill="#2DA15F"/>
<path d="M68.3735 43.9855H65.8218V49.0889H68.3735V43.9855Z" fill="#2DA15F"/>
<path d="M62.0835 55.0266H59.5317V60.1301H62.0835V55.0266Z" fill="#2DA15F"/>
<path d="M68.3735 55.0266H65.8218V60.1301H68.3735V55.0266Z" fill="#2DA15F"/>
</svg>
