<svg xmlns="http://www.w3.org/2000/svg" width="30" height="30" fill="none" viewBox="0 0 30 30">
    <path fill="#9F9F9F" fill-rule="evenodd" d="M15 2.5c-4.838 0-8.75 3.912-8.75 8.75C6.25 17.813 15 27.5 15 27.5s8.75-9.688 8.75-16.25c0-4.838-3.913-8.75-8.75-8.75zm-6.25 8.75C8.75 7.8 11.55 5 15 5s6.25 2.8 6.25 6.25c0 3.6-3.6 8.988-6.25 12.35-2.6-3.338-6.25-8.788-6.25-12.35zm3.125 0c0-1.726 1.4-3.125 3.125-3.125 1.116 0 2.148.596 2.706 1.563.559.966.559 2.158 0 3.124-.558.967-1.59 1.563-2.706 1.563-1.726 0-3.125-1.4-3.125-3.125z" clip-rule="evenodd"/>
</svg>
