<?xml version="1.0" encoding="utf-8"?>
<!-- Generator: Adobe Illustrator 23.0.5, SVG Export Plug-In . SVG Version: 6.00 Build 0)  -->
<svg version="1.1" id="Capa_1" xmlns="http://www.w3.org/2000/svg" xmlns:xlink="http://www.w3.org/1999/xlink" x="0px" y="0px"
	 viewBox="0 0 141.73 141.73" style="enable-background:new 0 0 141.73 141.73;" xml:space="preserve">
<style type="text/css">
	.st0{fill:#277B3D;}
</style>
<g>
	<path class="st0" d="M5.18,41.24c0,0,0,21.13,12.75,17c0,0,48.3-73.13,106.64,0.53c0,0,11.98,1.53,11.98-13.41
		C136.55,45.36,78.98-46.35,5.18,41.24z"/>
	<ellipse class="st0" cx="70.58" cy="100.26" rx="12.27" ry="15.34"/>
	<path class="st0" d="M22.06,60.63c0,0-3.98,13.93,10.75,14.43c0,0,33.04-47.77,77.23,0c0,0,9.16,2.49,9.55-12.94
		C119.6,62.12,76.6-4.57,22.06,60.63z"/>
	<path class="st0" d="M40.25,76.47c0,0-3.98,17.57,10.75,14.58c0,0,17.91-24.7,39.41,0.34c0,0,12.98,2.07,10.75-14.92
		C101.16,76.47,71.7,37.01,40.25,76.47z"/>
	<g>
		<path class="st0" d="M10.64,134.63c4.44,0.26,7.45,0.39,9.02,0.39c0.37,0,0.67-0.12,0.89-0.35c0.22-0.23,0.33-0.55,0.33-0.95
			v-2.33h-5.59c-1.7,0-2.94-0.41-3.71-1.23c-0.77-0.82-1.16-2.14-1.16-3.95v-0.78c0-1.81,0.39-3.13,1.16-3.95s2.01-1.23,3.71-1.23
			h8.54v3.63h-7.56c-0.97,0-1.46,0.52-1.46,1.55v0.52c0,1.04,0.49,1.55,1.46,1.55h4.38c1.59,0,2.76,0.4,3.5,1.19
			s1.12,2.04,1.12,3.73v1.3c0,1.69-0.37,2.94-1.12,3.73c-0.75,0.79-1.91,1.19-3.5,1.19c-0.83,0-1.7-0.02-2.63-0.05l-2.24-0.1
			c-1.65-0.09-3.36-0.21-5.13-0.36V134.63z"/>
		<path class="st0" d="M32.55,125.17v13.21h-4.26v-9.71h-1.82v-3.5H32.55z M28.29,119.99h4.26v3.63h-4.26V119.99z"/>
		<path class="st0" d="M43.62,124.39c1.31,0,2.33,0.52,3.04,1.55c0.75-0.54,1.55-0.93,2.42-1.18c0.87-0.25,1.64-0.38,2.32-0.38h0.24
			c1.1,0,1.99,0.35,2.65,1.06c0.67,0.71,1,1.65,1,2.82v10.1h-4.26v-9.33c0-0.26-0.08-0.47-0.24-0.65s-0.36-0.26-0.61-0.26h-0.12
			c-0.73,0-1.66,0.17-2.8,0.52v9.71h-4.26v-9.33c0-0.26-0.08-0.47-0.24-0.65s-0.36-0.26-0.61-0.26h-0.12c-0.73,0-1.66,0.17-2.8,0.52
			v9.71h-4.26v-13.73h3.77l0.24,1.29c0.76-0.54,1.54-0.93,2.35-1.18c0.8-0.25,1.48-0.38,2.03-0.38H43.62z"/>
		<path class="st0" d="M63.44,134.88c0.86,0,1.83-0.17,2.92-0.52v-9.71h4.26v13.73h-3.77l-0.24-1.29c-0.76,0.54-1.54,0.93-2.35,1.18
			s-1.48,0.38-2.03,0.38h-1.09c-1.1,0-1.99-0.35-2.65-1.06c-0.67-0.71-1-1.65-1-2.82v-10.1h4.26v9.33c0,0.26,0.08,0.47,0.24,0.65
			c0.16,0.17,0.36,0.26,0.61,0.26H63.44z"/>
		<path class="st0" d="M80.22,128.15c-0.86,0-1.83,0.17-2.92,0.52v9.71h-4.26v-13.73h3.77l0.24,1.29c0.76-0.54,1.54-0.93,2.35-1.18
			c0.8-0.25,1.48-0.38,2.03-0.38h1.1c1.1,0,1.98,0.35,2.65,1.06c0.66,0.71,1,1.65,1,2.82v10.1h-4.26v-9.33
			c0-0.26-0.08-0.47-0.24-0.65s-0.37-0.26-0.61-0.26H80.22z"/>
		<path class="st0" d="M93.72,125.17v13.21h-4.26v-9.71h-1.82v-3.5H93.72z M89.46,119.99h4.26v3.63h-4.26V119.99z"/>
		<path class="st0" d="M104.79,124.65h4.5l-4.87,13.73h-4.86l-4.86-13.73h4.5l2.8,9.33L104.79,124.65z"/>
		<path class="st0" d="M121.93,138.12c-3.13,0.34-5.97,0.52-8.51,0.52c-1.1,0-1.99-0.35-2.65-1.06s-1-1.65-1-2.82v-6.22
			c0-1.3,0.34-2.31,1.03-3.04c0.69-0.73,1.64-1.1,2.86-1.1h4.86c1.22,0,2.17,0.37,2.86,1.1c0.69,0.73,1.03,1.75,1.03,3.04v4.79
			h-8.39v1.04c0,0.26,0.08,0.47,0.24,0.65s0.36,0.26,0.61,0.26c1.6,0,3.96-0.13,7.05-0.39V138.12z M115,127.63
			c-0.65,0-0.97,0.35-0.97,1.04v1.42h4.13v-1.42c0-0.69-0.33-1.04-0.97-1.04H115z"/>
		<path class="st0" d="M132.03,128.41c-1.02,0-2.08,0.26-3.16,0.78v9.2h-4.26v-13.73h3.77l0.24,1.68c1.39-1.29,2.85-1.94,4.38-1.94
			h1.09v4.01H132.03z"/>
	</g>
</g>
<g>
</g>
<g>
</g>
<g>
</g>
<g>
</g>
<g>
</g>
<g>
</g>
</svg>
