<?xml version="1.0" encoding="utf-8"?>
<!-- Generator: Adobe Illustrator 23.0.5, SVG Export Plug-In . SVG Version: 6.00 Build 0)  -->
<svg version="1.1" id="Capa_1" xmlns="http://www.w3.org/2000/svg" xmlns:xlink="http://www.w3.org/1999/xlink" x="0px" y="0px"
	 viewBox="0 0 141.73 141.73" style="enable-background:new 0 0 141.73 141.73;" xml:space="preserve">
<style type="text/css">
	.st0{fill:#FFFFFF;}
</style>
<g>
	<path class="st0" d="M4.23,39.85c0,0,0,21.05,12.94,16.94c0,0,49-72.86,108.19,0.53c0,0,12.15,1.52,12.15-13.37
		C137.5,43.96,79.1-47.42,4.23,39.85z"/>
	<ellipse class="st0" cx="70.58" cy="98.65" rx="12.45" ry="15.29"/>
	<path class="st0" d="M21.36,59.16c0,0-4.04,13.88,10.9,14.38c0,0,33.52-47.6,78.35,0c0,0,9.29,2.48,9.69-12.89
		C120.3,60.65,76.69-5.79,21.36,59.16z"/>
	<path class="st0" d="M39.8,74.95c0,0-4.04,17.5,10.9,14.53c0,0,18.17-24.61,39.98,0.34c0,0,13.16,2.06,10.9-14.87
		C101.59,74.95,71.71,35.63,39.8,74.95z"/>
	<g>
		<path class="st0" d="M9.76,132.89c4.51,0.26,7.56,0.39,9.15,0.39c0.38,0,0.68-0.12,0.9-0.35c0.22-0.23,0.33-0.55,0.33-0.94v-2.32
			h-5.68c-1.73,0-2.98-0.41-3.76-1.23c-0.78-0.82-1.17-2.13-1.17-3.94v-0.77c0-1.81,0.39-3.12,1.17-3.94
			c0.78-0.82,2.04-1.23,3.76-1.23h8.66v3.61h-7.67c-0.99,0-1.48,0.52-1.48,1.55v0.52c0,1.03,0.49,1.55,1.48,1.55h4.44
			c1.61,0,2.8,0.4,3.55,1.19c0.76,0.79,1.14,2.03,1.14,3.72v1.29c0,1.69-0.38,2.92-1.14,3.72c-0.76,0.79-1.94,1.19-3.55,1.19
			c-0.84,0-1.73-0.02-2.66-0.05l-2.27-0.1c-1.68-0.09-3.41-0.21-5.21-0.36V132.89z"/>
		<path class="st0" d="M32,123.47v13.16h-4.32v-9.68h-1.85v-3.48H32z M27.68,118.31H32v3.61h-4.32V118.31z"/>
		<path class="st0" d="M43.22,122.7c1.33,0,2.36,0.52,3.08,1.55c0.76-0.53,1.57-0.92,2.46-1.17c0.88-0.25,1.67-0.38,2.36-0.38h0.25
			c1.12,0,2.02,0.35,2.69,1.06c0.67,0.71,1.01,1.64,1.01,2.81v10.07h-4.32v-9.29c0-0.26-0.08-0.47-0.25-0.64
			c-0.16-0.17-0.37-0.26-0.62-0.26h-0.12c-0.74,0-1.69,0.17-2.84,0.52v9.68h-4.32v-9.29c0-0.26-0.08-0.47-0.25-0.64
			c-0.17-0.17-0.37-0.26-0.62-0.26h-0.12c-0.74,0-1.69,0.17-2.84,0.52v9.68h-4.32v-13.68h3.82l0.25,1.29
			c0.77-0.53,1.57-0.92,2.38-1.17c0.81-0.25,1.5-0.38,2.06-0.38H43.22z"/>
		<path class="st0" d="M63.33,133.15c0.87,0,1.86-0.17,2.96-0.52v-9.68h4.32v13.68h-3.82l-0.25-1.29c-0.77,0.53-1.57,0.92-2.38,1.17
			c-0.81,0.25-1.5,0.37-2.06,0.37h-1.11c-1.12,0-2.02-0.35-2.69-1.06c-0.67-0.71-1.01-1.64-1.01-2.81v-10.06h4.32v9.29
			c0,0.26,0.08,0.47,0.25,0.65s0.37,0.26,0.62,0.26H63.33z"/>
		<path class="st0" d="M80.36,126.44c-0.87,0-1.86,0.17-2.96,0.52v9.68h-4.32v-13.68h3.83l0.25,1.29c0.77-0.53,1.57-0.92,2.38-1.17
			c0.81-0.25,1.5-0.38,2.06-0.38h1.11c1.12,0,2.02,0.35,2.69,1.06c0.67,0.71,1.01,1.64,1.01,2.81v10.07h-4.32v-9.29
			c0-0.26-0.08-0.47-0.25-0.64s-0.37-0.26-0.62-0.26H80.36z"/>
		<path class="st0" d="M94.05,123.47v13.16h-4.32v-9.68h-1.85v-3.48H94.05z M89.73,118.31h4.32v3.61h-4.32V118.31z"/>
		<path class="st0" d="M105.28,122.95h4.57l-4.94,13.68h-4.93l-4.94-13.68h4.57l2.84,9.29L105.28,122.95z"/>
		<path class="st0" d="M122.67,136.37c-3.17,0.34-6.05,0.52-8.64,0.52c-1.12,0-2.02-0.35-2.69-1.06c-0.67-0.71-1.01-1.64-1.01-2.81
			v-6.19c0-1.29,0.35-2.3,1.05-3.03c0.7-0.73,1.67-1.1,2.9-1.1h4.94c1.23,0,2.2,0.37,2.9,1.1c0.7,0.73,1.05,1.74,1.05,3.03v4.77
			h-8.51v1.03c0,0.26,0.08,0.47,0.25,0.64c0.16,0.17,0.37,0.26,0.62,0.26c1.63,0,4.01-0.13,7.16-0.39V136.37z M115.64,125.92
			c-0.66,0-0.99,0.34-0.99,1.03v1.42h4.2v-1.42c0-0.69-0.33-1.03-0.99-1.03H115.64z"/>
		<path class="st0" d="M132.91,126.7c-1.04,0-2.11,0.26-3.21,0.77v9.16h-4.32v-13.68h3.83l0.25,1.68c1.42-1.29,2.9-1.94,4.44-1.94
			h1.11v4H132.91z"/>
	</g>
</g>
<g>
</g>
<g>
</g>
<g>
</g>
<g>
</g>
<g>
</g>
<g>
</g>
</svg>
