<?xml version="1.0" encoding="utf-8"?>
<!-- Generator: Adobe Illustrator 23.0.5, SVG Export Plug-In . SVG Version: 6.00 Build 0)  -->
<svg version="1.1" id="Capa_1" xmlns="http://www.w3.org/2000/svg" xmlns:xlink="http://www.w3.org/1999/xlink" x="0px" y="0px"
	 viewBox="0 0 348.66 73.7" style="enable-background:new 0 0 348.66 73.7;" xml:space="preserve">
<g>
	<g>
		<path d="M67.31,52.5c9.84,0.54,16.51,0.81,19.99,0.81c0.83,0,1.48-0.24,1.97-0.73c0.48-0.49,0.73-1.14,0.73-1.97v-4.85H77.6
			c-3.77,0-6.51-0.85-8.22-2.56c-1.71-1.71-2.56-4.45-2.56-8.22v-1.62c0-3.77,0.85-6.51,2.56-8.22c1.71-1.71,4.45-2.56,8.22-2.56
			h18.91v7.54H79.76c-2.16,0-3.23,1.08-3.23,3.23v1.08c0,2.16,1.08,3.23,3.23,3.23h9.7c3.52,0,6.11,0.83,7.76,2.48
			c1.65,1.65,2.48,4.24,2.48,7.76v2.69c0,3.52-0.83,6.11-2.48,7.76c-1.65,1.65-4.24,2.48-7.76,2.48c-1.83,0-3.77-0.04-5.82-0.11
			l-4.96-0.21c-3.66-0.18-7.45-0.43-11.37-0.76V52.5z"/>
		<path d="M115.86,32.83v27.48h-9.43V40.11h-4.04v-7.27H115.86z M106.43,22.06h9.43v7.54h-9.43V22.06z"/>
		<path d="M140.38,31.22c2.91,0,5.15,1.08,6.74,3.23c1.65-1.11,3.44-1.93,5.36-2.45c1.92-0.52,3.64-0.78,5.15-0.78h0.54
			c2.44,0,4.4,0.74,5.87,2.21c1.47,1.47,2.21,3.43,2.21,5.87v21.01h-9.43v-19.4c0-0.54-0.18-0.99-0.54-1.35
			c-0.36-0.36-0.81-0.54-1.35-0.54h-0.27c-1.62,0-3.68,0.36-6.2,1.08v20.21h-9.43v-19.4c0-0.54-0.18-0.99-0.54-1.35
			c-0.36-0.36-0.81-0.54-1.35-0.54h-0.27c-1.62,0-3.68,0.36-6.2,1.08v20.21h-9.43V31.76h8.35l0.54,2.69
			c1.69-1.11,3.42-1.93,5.2-2.45c1.78-0.52,3.28-0.78,4.5-0.78H140.38z"/>
		<path d="M184.29,53.04c1.9,0,4.06-0.36,6.47-1.08V31.76h9.43v28.56h-8.35l-0.54-2.69c-1.69,1.11-3.42,1.93-5.2,2.45
			c-1.78,0.52-3.28,0.78-4.5,0.78h-2.42c-2.44,0-4.4-0.74-5.87-2.21c-1.47-1.47-2.21-3.43-2.21-5.87V31.76h9.43v19.4
			c0,0.54,0.18,0.99,0.54,1.35c0.36,0.36,0.81,0.54,1.35,0.54H184.29z"/>
		<path d="M221.47,39.03c-1.9,0-4.06,0.36-6.47,1.08v20.21h-9.43V31.76h8.35l0.54,2.69c1.69-1.11,3.42-1.93,5.2-2.45
			c1.78-0.52,3.28-0.78,4.5-0.78h2.42c2.44,0,4.4,0.74,5.87,2.21c1.47,1.47,2.21,3.43,2.21,5.87v21.01h-9.43v-19.4
			c0-0.54-0.18-0.99-0.54-1.35c-0.36-0.36-0.81-0.54-1.35-0.54H221.47z"/>
		<path d="M251.37,32.83v27.48h-9.43V40.11h-4.04v-7.27H251.37z M241.94,22.06h9.43v7.54h-9.43V22.06z"/>
		<path d="M275.89,31.76h9.97l-10.78,28.56h-10.78l-10.78-28.56h9.97l6.2,19.4L275.89,31.76z"/>
		<path d="M313.88,59.78c-6.93,0.72-13.22,1.08-18.86,1.08c-2.44,0-4.4-0.74-5.87-2.21c-1.47-1.47-2.21-3.43-2.21-5.87V39.84
			c0-2.69,0.76-4.8,2.29-6.33c1.53-1.53,3.64-2.29,6.33-2.29h10.78c2.69,0,4.8,0.76,6.33,2.29s2.29,3.64,2.29,6.33v9.97h-18.59v2.16
			c0,0.54,0.18,0.99,0.54,1.35c0.36,0.36,0.81,0.54,1.35,0.54c3.56,0,8.76-0.27,15.63-0.81V59.78z M298.52,37.95
			c-1.44,0-2.16,0.72-2.16,2.16v2.96h9.16v-2.96c0-1.44-0.72-2.16-2.16-2.16H298.52z"/>
		<path d="M336.24,39.57c-2.26,0-4.6,0.54-7.01,1.62v19.13h-9.43V31.76h8.35l0.54,3.5c3.09-2.69,6.32-4.04,9.7-4.04h2.42v8.35
			H336.24z"/>
	</g>
	<g>
		<circle cx="18.63" cy="51.98" r="8.34"/>
		<path d="M11.79,13.09c0,0-7.95,4.95-1.29,11.49c0,0,36.33-8.67,36.09,33.04c0,0,3.19,5.11,10.12-2.09
			C56.71,55.53,65.77,5.3,11.79,13.09z"/>
		<path d="M13.36,28.44c0,0-9.54,6.68-1.35,11.56c0,0,19.17-4.13,18.27,17.03c0,0,5.16,6.54,11.55-2.53
			C41.82,54.5,45.31,23.05,13.36,28.44z"/>
	</g>
</g>
</svg>
