<svg id="Capa_1" data-name="Capa 1" xmlns="http://www.w3.org/2000/svg" viewBox="0 0 133.27 141.73"><defs><style>.cls-1,.cls-2{fill:#277b3d;}.cls-2{font-size:25.81px;font-family:RussoOne-Regular, Russo One;}.cls-3{letter-spacing:-0.01em;}.cls-4{letter-spacing:0em;}</style></defs><title>simuniver-logo-verde</title><path class="cls-1" d="M4.23,39.85s0,21,12.93,16.94c0,0,49-72.86,108.19.53,0,0,12.15,1.52,12.15-13.36C137.5,44,79.1-47.42,4.23,39.85Z" transform="translate(-4.23 -2.1)"/><ellipse class="cls-1" cx="66.35" cy="96.55" rx="12.45" ry="15.29"/><path class="cls-1" d="M21.36,59.16s-4,13.89,10.9,14.38c0,0,33.52-47.6,78.35,0,0,0,9.29,2.48,9.69-12.89C120.3,60.65,76.69-5.79,21.36,59.16Z" transform="translate(-4.23 -2.1)"/><path class="cls-1" d="M39.8,75s-4,17.51,10.91,14.53c0,0,18.17-24.6,40,.34,0,0,13.16,2.06,10.9-14.87C101.59,75,71.71,35.63,39.8,75Z" transform="translate(-4.23 -2.1)"/><text class="cls-2" transform="translate(4.57 134.53) scale(0.96 1)">Simuni<tspan class="cls-3" x="90.46" y="0">v</tspan><tspan class="cls-4" x="105.17" y="0">er</tspan></text></svg>