<svg id="Capa_1" data-name="Capa 1" xmlns="http://www.w3.org/2000/svg" viewBox="0 0 239.31 240.57"><defs><style>.cls-1{fill:#277b3d;}</style></defs><title>simuniver_solo_logo</title><path class="cls-1" d="M22.61,8.92S-9.88,42.07,18.54,57.25c0,0,196.15-32.76,183.9,181.9,0,0,18.4,22.74,41.38-.71C243.82,238.44,285.18-3.24,22.61,8.92Z" transform="translate(-6.88 -8.48)"/><ellipse class="cls-1" cx="45.11" cy="212.59" rx="33.72" ry="29.77" transform="translate(-145.17 87.51) rotate(-45.57)"/><path class="cls-1" d="M22,68s-28.33,15.1-3.59,40.89c0,0,130.72-18.87,133.77,131.13,0,0,12,19.45,36.46-4.08C188.68,236,216.79,58.3,22,68Z" transform="translate(-6.88 -8.48)"/><path class="cls-1" d="M29.15,123.75s-33.92,20.81-3.81,41.13c0,0,69-8.34,67.74,67.45,0,0,19.29,25.28,41.57-5.17C134.65,227.16,144.34,115.21,29.15,123.75Z" transform="translate(-6.88 -8.48)"/></svg>